<svg viewBox="0 0 64 64" fill="none" xmlns="http://www.w3.org/2000/svg">
<g clip-path="url(#clip0)">
<path d="M5.68093 52.4445C6.31025 53.1807 6.97416 53.8868 7.67043 54.5604C10.0174 56.8638 12.8161 58.7999 15.8185 60.2642C16.9248 60.7807 17.9451 61.3158 19.1407 61.7765C19.4394 61.8909 19.7445 62.0134 20.0653 62.1238C20.3888 62.226 20.7242 62.3282 21.0748 62.4294C21.4234 62.5381 21.7951 62.6153 22.1838 62.6955C22.5728 62.7733 22.9767 62.8624 23.4106 62.9067C21.2585 62.4543 19.1609 61.7746 17.1532 60.8792C15.133 59.9704 13.2135 58.854 11.4257 57.5478C7.84524 54.9324 4.78275 51.5743 2.5458 47.7356C2.45347 47.6208 2.31328 47.4022 2.14525 47.1236L1.87505 46.6673L1.60248 46.1423C1.42121 45.7781 1.21245 45.4085 1.05258 45.0504C0.909213 44.7372 0.759143 44.427 0.602469 44.1202C1.29766 45.8468 2.10011 47.3571 2.99862 48.7933C3.41249 49.452 3.85056 50.0952 4.31194 50.7217C4.24677 50.634 4.17888 50.5487 4.11404 50.4607C4.60846 51.1398 5.12934 51.7993 5.6755 52.4378L5.68093 52.4445ZM4.11336 50.4603L4.07093 50.4028L4.11336 50.4603ZM-1.55675 35.8934L-1.7207 34.5818C-1.6338 35.3823 -1.53299 36.2769 -1.34867 37.1725L-1.45967 36.5365C-1.50064 36.3235 -1.53303 36.109 -1.55675 35.8934ZM27.1187 62.8139C29.3767 63.0417 31.7447 62.9737 34.0641 62.6078C36.3849 62.2433 38.6548 61.5968 40.7651 60.7634C36.8784 62.2876 32.7535 62.9656 28.7181 62.8522C28.1781 62.8437 27.6458 62.8522 27.1187 62.8139Z" fill="#001E55"/>
<path d="M13.749 58.2079L13.6611 58.1521C13.6907 58.1707 13.7195 58.1896 13.749 58.2079ZM17.025 60.0076C18.8856 60.8709 20.8344 61.5309 22.8374 61.9762C19.5488 61.2282 16.4541 59.9084 13.749 58.2079C14.7878 58.8669 15.8798 59.4769 17.025 60.0076ZM58.0726 36.2495C58.1059 35.7147 58.1731 35.1535 58.1901 34.8864C58.3917 33.17 58.4514 31.7044 58.443 30.234C58.4056 29.969 58.2987 29.4724 58.2563 28.9078C58.2043 28.3419 58.128 27.7878 58.0635 27.2411C57.9654 26.6992 57.8808 26.1627 57.7736 25.6367C58.5458 29.5689 58.5329 33.5163 57.8224 37.2406C57.9006 36.9089 57.984 36.5785 58.0726 36.2495Z" fill="#001E55"/>
<path d="M-1.70953 28.2572C-1.42168 25.9216 -0.808983 23.645 -0.226153 22.1283L-0.462069 23.2385C-0.316446 22.9132 -0.0812094 22.1574 0.239568 21.3575L0.47107 20.7476L0.726674 20.1563C0.896397 19.7734 1.03896 19.4106 1.18934 19.1324C1.08649 19.3933 0.987368 19.6746 0.867883 19.9569C0.750774 20.2402 0.619408 20.5279 0.494153 20.8173L1.00807 19.6634C0.489532 20.9587 0.0431588 22.2816 -0.329005 23.6261C-0.713598 25.0991 -1.01774 26.6473 -1.18136 28.0372C-1.22888 28.3838 -1.24551 28.7222 -1.2764 29.0452C-1.29914 29.3681 -1.33852 29.6761 -1.34157 29.9672C-1.35583 30.549 -1.37552 31.0585 -1.36568 31.466C-1.33003 32.2814 -1.28081 32.6879 -1.20987 32.4608C-1.07036 32.0096 -1.07307 29.6893 -0.586306 26.7854C-0.325951 25.3381 0.0477803 23.7506 0.554913 22.1953C1.05831 20.6386 1.7182 19.1293 2.4015 17.7977L2.20055 18.235L2.01555 18.6856L1.63673 19.5964L1.28914 20.5374L1.11228 21.0119C1.06035 21.1731 1.00774 21.3349 0.9558 21.4973C0.50773 22.7859 0.172697 24.1429 -0.119228 25.5107L-0.308978 26.5438C-0.378565 26.887 -0.408097 27.2363 -0.459693 27.5819C-0.567637 28.2727 -0.607012 28.9687 -0.667094 29.6565C-0.734644 31.0354 -0.748222 32.3975 -0.622966 33.7C-0.628058 33.3906 -0.63315 33.1157 -0.628737 32.8497L-0.589701 32.0526C-0.573407 31.7787 -0.576462 31.4883 -0.550664 31.1556C-0.526903 30.8229 -0.505178 30.4478 -0.486169 30.0041C-0.353446 27.7674 0.0474408 25.553 0.670665 23.4101C1.2647 21.258 1.96531 19.3629 3.00911 17.6457L3.28101 17.1292C3.46499 16.7826 3.61808 16.4407 3.81258 16.0921C4.03424 15.7096 4.24639 15.4233 4.41815 15.1609C4.59501 14.9013 4.74504 14.6732 4.9168 14.4518L6.16664 12.7316C6.1921 12.7286 6.15918 12.7943 6.09875 12.8918C6.30483 12.5989 6.52682 12.3176 6.76373 12.0489C7.02001 11.7528 7.26883 11.4386 7.47962 11.1794C7.52918 11.177 7.57738 11.1756 7.6911 11.0944C10.6273 7.98139 14.2407 5.44446 18.3127 3.84513L19.218 3.49345L20.1345 3.18915L20.5904 3.03751L21.0521 2.90889L21.972 2.65401C22.4981 2.52775 23.031 2.39981 23.5745 2.28472L24.4017 2.14053C24.6797 2.0928 24.9591 2.03899 25.2449 2.01258C25.8131 1.94455 26.3087 1.80103 26.5759 1.76583C28.0589 1.68155 29.5392 1.69847 31.2769 1.83894C31.4116 1.84131 31.6214 1.8535 31.8648 1.8667C32.1082 1.88058 32.3865 1.88735 32.6564 1.91205C32.9727 1.98314 33.3105 2.05354 33.6649 2.12225C35.8268 2.45667 37.9171 3.05443 39.9059 3.84953L39.9036 3.84005L40.6653 4.14265L41.4426 4.50077C41.9759 4.73229 42.4983 5.02846 43.038 5.30737C43.3089 5.44514 43.5655 5.61336 43.8316 5.76568C44.093 5.92612 44.3666 6.06828 44.6192 6.24362C45.131 6.58278 45.6501 6.90738 46.1283 7.2699C46.8995 7.82479 47.647 8.41179 48.3687 9.02933C48.3843 9.04354 48.4006 9.05675 48.4162 9.07062L48.4305 9.08349L48.925 9.53096L49.3982 10.0018L49.8717 10.473C50.0286 10.631 50.1739 10.8003 50.3256 10.9634C50.2523 10.8449 50.255 10.7972 50.2577 10.7502C50.0238 10.5268 49.7472 10.2624 49.4739 10.0021C49.9298 10.4158 50.3276 10.7898 50.6542 11.0951C50.7801 11.2555 50.9176 11.4133 51.0479 11.5855L51.4505 12.1156L51.8786 12.667L52.3046 13.26C53.0602 14.2206 53.7272 15.2483 54.3606 16.2962C54.6539 16.8337 54.9774 17.356 55.2384 17.9121L55.6502 18.7367L56.0208 19.5819C56.1274 19.7623 56.086 19.5893 56.0992 19.5588C56.5151 20.5614 56.8494 21.604 57.1522 22.6546C57.731 24.5533 58.1185 26.5048 58.309 28.4802C58.3854 28.9467 58.418 29.4185 58.4855 29.8859L58.4438 30.8757C58.4435 31.249 58.4631 31.6224 58.4472 31.9964L58.4037 33.1222C58.3983 33.376 58.3616 33.6533 58.3403 33.9545C58.3118 34.2551 58.2968 34.5793 58.2534 34.9212L58.1135 36.0016C58.0687 36.3804 57.9821 36.7697 57.9156 37.1765C57.5843 38.9631 57.0945 40.7168 56.4519 42.4169C56.3698 42.6965 56.307 42.9199 56.251 43.0448C56.0381 43.5529 55.811 44.0447 55.5918 44.529C55.3463 45.0009 55.1213 45.4727 54.8698 45.9195C54.0919 47.3904 53.1892 48.7922 52.1715 50.1096C52.0574 50.2582 51.9512 50.4092 51.8365 50.5486L51.4977 50.9568C51.2737 51.2205 51.0734 51.4842 50.8609 51.713C50.4362 52.1706 50.0798 52.5951 49.7455 52.9143C49.3626 53.313 49.3969 53.3316 49.662 53.1394C49.848 53.0023 50.0301 52.8598 50.2078 52.7122L50.9281 52.0643C51.1915 51.8352 51.4437 51.5766 51.6868 51.3329C51.9271 51.0875 52.1674 50.8637 52.3528 50.6613C52.7265 50.2582 52.9719 50.0094 52.9196 50.1201C52.3164 51.2523 51.218 52.6489 49.6124 54.1937C48.7933 54.9475 47.8717 55.7667 46.7818 56.5563C46.2502 56.9696 45.6592 57.3477 45.0567 57.7607C44.4342 58.1408 43.798 58.5571 43.1025 58.9267C41.5804 59.7533 44.2447 58.4275 44.3167 58.4149C44.0597 58.6167 43.7903 58.8022 43.5098 58.9701C43.0081 59.2361 42.5109 59.5106 41.9912 59.7394C41.6874 59.8785 41.389 60.0288 41.0818 60.1588L40.1554 60.5386L40.6456 60.3463C41.6476 59.9493 42.5842 59.4815 43.4297 59.0188C43.112 59.2104 42.7644 59.4321 42.3836 59.6321C41.9752 59.8427 41.5526 60.0728 41.1286 60.2783L39.8981 60.849C44.3001 59.2544 48.3453 56.6156 51.5476 53.1756C53.1508 51.4608 54.5806 49.5772 55.7462 47.5395C56.9191 45.506 57.8626 43.3492 58.5595 41.1087C57.4889 44.4698 55.8199 47.5574 53.8137 50.1682C57.4608 45.2578 59.6353 39.2375 59.9234 33.0288C59.9231 33.371 59.8892 33.7118 59.8664 34.0527C59.8382 34.3935 59.8247 34.7357 59.7846 35.0756C59.6974 35.7542 59.6349 36.4366 59.5039 37.1095C59.2921 38.4634 58.9486 39.794 58.5595 41.1087C59.3274 38.7322 59.786 36.2264 59.9665 33.7064C60.1546 31.1844 59.9978 28.6471 59.6078 26.1884C60.2778 29.4452 60.3888 33.1354 59.8179 36.7822C60.2191 34.4301 60.3209 32.0055 60.1668 29.6016C60.1322 28.6833 60.0236 27.7714 59.9343 26.9273C59.8063 26.0892 59.7096 25.3154 59.5857 24.6896C60.0762 27 60.2697 28.9707 60.364 30.8283C60.2734 26.7743 59.4312 22.6668 57.7775 18.8084C58.68 20.904 59.4211 23.1583 59.8735 25.4759C60.3284 27.7911 60.5175 30.1598 60.4099 32.4384C60.4048 32.1717 60.416 31.9053 60.4004 31.6376L60.364 30.8283C60.4615 34.5008 59.8942 38.1409 58.77 41.5639C58.2058 43.2753 57.509 44.9383 56.6654 46.5207C55.8236 48.1007 54.8517 49.6082 53.7598 51.0279C55.0066 49.5758 56.3229 47.5233 57.3735 45.2686C58.4194 43.0093 59.1957 40.5658 59.7296 38.4316C58.9441 42.2639 57.3851 46.0454 55.123 49.4225C52.867 52.8022 49.9121 55.7738 46.4932 58.0545C43.0784 60.3423 39.204 61.9257 35.228 62.7079C33.2538 63.0989 31.2471 63.3039 29.2344 63.3202C27.2584 63.3307 25.2856 63.1591 23.3413 62.8074L24.3613 63.0007C24.7014 63.065 25.0463 63.1006 25.3885 63.1513C26.0728 63.261 26.7649 63.3023 27.4547 63.3656C28.8373 63.4431 30.2273 63.4692 31.6129 63.3639C33.0009 63.2904 34.3801 63.084 35.7528 62.8318C36.4337 62.6775 37.1228 62.5512 37.7953 62.3532C38.1327 62.2591 38.4742 62.1768 38.8092 62.0723L39.8122 61.748C39.3058 61.9044 38.7729 62.1115 38.2036 62.2635L37.4904 62.4727C38.9871 62.0747 40.4519 61.5661 41.8727 60.9509C42.5226 60.6681 43.1624 60.3627 43.7909 60.0353C42.6133 60.6581 41.3988 61.2088 40.1541 61.6844C37.7805 62.5677 35.3138 63.1788 32.8017 63.5061C32.4249 63.5656 32.0814 63.5843 31.7735 63.6164L30.9493 63.6976C30.4642 63.7359 30.1061 63.7532 29.8556 63.7806C29.3542 63.8303 29.283 63.8767 29.4826 63.915C29.6818 63.9532 30.1516 63.9837 30.7293 63.9999C31.3054 63.9965 31.9887 63.9657 32.6102 63.9092C38.855 63.2705 44.5886 60.8266 49.1833 57.168C53.7812 53.5086 57.3026 48.6477 59.2653 43.1321C59.3885 42.8119 59.4832 42.4816 59.5857 42.1539C59.6852 41.8252 59.7951 41.5 59.8851 41.1682C60.0518 40.5014 60.249 39.8424 60.3766 39.1654L60.5867 38.1551L60.752 37.1356L60.8338 36.6255L60.8922 36.112L61.0083 35.085C61.2452 32.3386 61.1516 29.5627 60.7327 26.8386C60.5086 25.2971 60.1149 23.467 59.6074 21.8368L59.2171 20.6576C59.0813 20.2829 58.937 19.9295 58.8087 19.5971L58.6196 19.1181L58.4258 18.6879L58.0928 17.969C57.029 15.8166 55.6922 13.7637 54.1274 11.8543C52.5642 9.94425 50.7682 8.17568 48.7434 6.63558L47.9817 6.05914L47.1918 5.51486L46.796 5.24205L46.3877 4.98615L45.5672 4.47572C44.4487 3.83125 43.3031 3.21014 42.0954 2.69496C40.9002 2.15407 39.6493 1.71506 38.376 1.32242C37.7328 1.14641 37.0926 0.950087 36.4331 0.815033C36.1045 0.74429 35.7786 0.658315 35.4463 0.599081L34.447 0.422732C32.0573 0.00335174 29.5715 -0.0965006 27.0881 0.0896648C24.6061 0.280907 22.1135 0.750721 19.7235 1.56173L18.829 1.87076C18.53 1.97129 18.2418 2.10161 17.9475 2.21567C17.6562 2.33719 17.3585 2.44347 17.0727 2.57751L16.2132 2.97455C15.924 3.10182 15.6447 3.24805 15.366 3.39596L14.5279 3.83497L13.7125 4.31291C13.441 4.47268 13.1674 4.62872 12.9074 4.80642L12.1185 5.32362C11.8531 5.49185 11.6073 5.68851 11.351 5.86925C11.0995 6.05677 10.8384 6.23143 10.5954 6.4291L9.86322 7.01705C9.61576 7.20829 9.38222 7.41578 9.14936 7.62361L8.44908 8.24303L7.78003 8.89258C7.55736 9.10887 7.3323 9.32279 7.1249 9.55296C5.41715 11.3462 3.91679 13.3027 2.68969 15.3728C1.48637 17.4036 0.500304 19.5549 -0.252291 21.7911C-1.73737 26.1643 -2.16337 30.5995 -1.96514 34.6054C-2.00791 32.9563 -2.01504 30.5913 -1.70953 28.2572ZM46.1972 58.8716C47.2287 58.2067 48.222 57.4847 49.1725 56.709C48.2085 57.5007 47.218 58.2318 46.1972 58.8716ZM59.8488 40.4981C59.7473 40.803 59.6614 41.1043 59.5494 41.392L59.2245 42.246L59.0663 42.6684L58.8922 43.0851C58.7759 43.3658 58.6631 43.648 58.5538 43.9316C57.9253 45.4926 57.1778 47.0033 56.3178 48.4504C55.4621 49.8974 54.4702 51.2533 53.4105 52.5257C52.8871 53.1685 52.3168 53.7645 51.756 54.3606L50.8799 55.2146C50.5924 55.5016 50.2777 55.7575 49.9797 56.0283C49.7299 56.2449 49.478 56.4568 49.2244 56.6653C50.1662 55.894 51.0612 55.0675 51.9047 54.1903C50.6843 55.4518 49.3567 56.6055 47.9369 57.6388C47.5852 57.8832 47.2455 58.1452 46.8802 58.3753L45.778 59.0757L44.6137 59.7354C44.2176 59.9547 43.7994 60.1497 43.3802 60.3633C43.6804 60.1868 43.9843 60.0167 44.2916 59.8528C44.6382 59.6609 45.0017 59.4341 45.3568 59.2266C45.7145 59.0232 46.0397 58.7998 46.3099 58.613C46.5801 58.4261 46.7919 58.2711 46.9023 58.1709C46.7448 58.2775 46.5845 58.3797 46.425 58.4837C46.5966 58.3708 46.7672 58.2563 46.9366 58.1401C46.9294 58.1479 46.9145 58.1601 46.9023 58.1709C50.6131 55.6438 53.7744 52.3229 56.143 48.537C58.5222 44.7545 60.0704 40.4876 60.712 36.1482C60.5728 37.8887 60.253 39.2785 59.8488 40.4981ZM54.7224 14.0795C55.744 15.618 56.6269 17.2436 57.361 18.9374C57.4458 19.1232 57.5259 19.3118 57.605 19.5006C59.2897 23.6145 60.0562 28.0277 59.9438 32.3751C59.9723 30.9366 59.8766 29.4987 59.7167 28.073C59.5358 26.43 59.2014 24.8067 58.7581 23.2189C57.8885 20.0347 56.476 17.0168 54.6831 14.2657C54.8477 14.4924 55.0212 14.7382 55.2007 14.9988C55.393 15.2685 55.5731 15.5467 55.7404 15.8325L55.5239 15.4571L55.29 15.0919L54.8222 14.3621C54.5038 13.8801 54.1586 13.4157 53.8263 12.9432C53.4658 12.4917 53.124 12.0252 52.7489 11.5855C52.4651 11.263 52.1932 10.9296 51.9054 10.6111C52.921 11.679 53.8745 12.8247 54.7224 14.0795ZM30.877 0.389899C31.375 0.4163 31.874 0.464703 32.3729 0.501937C32.7816 0.536123 33.1883 0.596373 33.5909 0.64173C33.7117 0.646807 33.8393 0.654931 33.9996 0.67287C34.1594 0.694872 34.3506 0.735828 34.6 0.792693C36.4565 1.10139 38.1503 1.56545 39.3526 2.04474C41.6602 2.91566 43.8072 3.99914 45.7546 5.25051C47.7027 6.49951 49.4508 7.92012 50.9298 9.47172C51.6114 10.2093 51.4125 10.0485 51.0367 9.69038L51.6009 10.2875C51.3511 10.039 51.1056 9.78719 50.8521 9.54416L50.071 8.83673C50.2611 9.00259 50.7221 9.39963 51.0367 9.69038C48.5286 7.13856 45.5968 5.01966 42.4233 3.46095C39.2474 1.90292 35.8275 0.94061 32.4089 0.556432C32.9581 0.617359 33.2277 0.630898 33.4843 0.637668C33.116 0.594681 32.7467 0.535785 32.3729 0.501937C31.8709 0.469104 31.3699 0.424424 30.8716 0.400053L29.3916 0.36519C29.8817 0.364851 30.3784 0.37839 30.877 0.389899Z" fill="#001E55"/>
<path d="M37.3459 62.5144L37.4905 62.4721C37.3391 62.5127 37.1901 62.5574 37.0377 62.596C37.1409 62.5702 37.2444 62.5452 37.3459 62.5144ZM52.4452 49.4696C53.8827 47.5785 55.153 45.3188 55.9639 43.3722L55.954 43.3742C53.8967 48.222 50.5596 52.3982 46.3952 55.4729C47.1346 54.9605 47.861 54.4297 48.5738 53.8811C49.4896 52.9265 51.0222 51.3743 52.4452 49.4696ZM9.98926 55.1206C12.4238 57.2909 15.3596 59.1797 18.6275 60.452C19.9018 60.9303 21.2022 61.3493 22.5321 61.6445C23.192 61.8144 23.8658 61.9193 24.5345 62.0442C24.8696 62.1035 25.209 62.1363 25.5458 62.1837C25.8832 62.2274 26.2199 62.2768 26.5597 62.2964C25.0257 62.1268 23.503 61.873 22.0206 61.4705C20.5393 61.0694 19.0871 60.5735 17.6862 59.9646C16.2926 59.3459 14.9436 58.6318 13.6488 57.8274C12.3637 57.0124 11.1451 56.1022 9.98926 55.1206ZM40.0394 58.9898L39.2862 59.2846L38.517 59.5405C38.0078 59.7233 37.4827 59.86 36.959 60.0052C37.4854 59.8732 38.015 59.75 38.5286 59.5808L39.3035 59.3445L40.0605 59.0686C40.0313 59.0537 39.8589 59.0873 40.0394 58.9898ZM31.148 60.9151C30.7542 60.9486 30.3584 60.9455 29.962 60.9496C29.5655 60.9543 29.1683 60.9628 28.7708 60.9367L29.3058 60.9868C29.4694 60.9973 29.6167 61.0098 29.7454 61.0251C30.2142 60.9851 30.6795 60.974 31.148 60.9151ZM15.4513 57.2743C15.9065 57.5407 16.3899 57.7753 16.8695 58.0339C16.9897 58.0996 17.2076 58.1744 17.4808 58.2739C16.8967 58.0237 16.3369 57.7137 15.768 57.426C15.4863 57.2767 15.215 57.1095 14.9387 56.9538C14.6631 56.7967 14.3885 56.64 14.1278 56.4647L14.4459 56.6766L14.7775 56.8743L15.4513 57.2743Z" fill="#001E55"/>
<path d="M29.6897 11.2907H29.2167V11.33C23.6346 11.4943 19.1185 15.7539 18.677 21.3129L18.6758 22.5083H18.7087V22.9855L18.7099 23.014C19.1563 28.634 23.766 32.9286 29.4373 33.0036H29.9423V29.6287C30.2428 29.765 30.5631 29.8337 30.8953 29.8337C31.4612 29.8337 32.0324 29.6272 32.5472 29.2362L32.5862 29.2065L32.616 29.1674C33.2515 28.3336 33.3832 27.3394 32.9682 26.5073C32.5746 25.7175 31.7801 25.227 30.895 25.227C30.5657 25.227 30.2471 25.2953 29.9423 25.4313V22.5083H32.8765C33.1231 22.5083 33.3486 22.3838 33.4804 22.1751C33.6077 21.9737 33.6227 21.7269 33.5206 21.5151C33.2448 20.9435 33.3427 20.2733 33.7879 19.6695C34.1603 19.399 34.5621 19.2562 34.9534 19.2562C35.8287 19.2562 36.541 19.9652 36.541 20.8369C36.541 21.0661 36.4923 21.2871 36.3963 21.4938C36.2908 21.7213 36.3075 21.9812 36.4408 22.1886C36.5693 22.3886 36.7894 22.5083 37.0299 22.5083H40.4505V22C40.3709 16.0738 35.6465 11.3698 29.6897 11.2907ZM19.4016 21.3558C19.8199 16.1797 24.0234 12.2113 29.2167 12.0502V14.6654C28.4052 14.2972 27.4287 14.4376 26.6119 15.0577L26.5727 15.0873L26.543 15.1267C26.1757 15.6084 25.9824 16.144 25.9602 16.6709C25.9582 16.7071 25.9539 16.7431 25.9536 16.7795C25.9539 16.8166 25.9585 16.8535 25.9604 16.8905C25.9831 17.4169 26.176 17.9515 26.5427 18.4328L26.5725 18.4719L26.6115 18.5018C27.1263 18.8931 27.6978 19.0999 28.2639 19.0999C28.6029 19.0999 28.9295 19.028 29.2167 18.89V21.786H26.2827H26.249C26.0088 21.786 25.7886 21.9054 25.6599 22.1054C25.5266 22.3129 25.5099 22.5727 25.6154 22.8002C25.7112 23.007 25.7601 23.228 25.7601 23.4569C25.7601 23.8791 25.5948 24.2762 25.2951 24.5749C25.048 24.8207 24.7338 24.9739 24.3936 25.021C24.3435 25.0268 24.2932 25.0333 24.2431 25.0345C24.2249 25.0352 24.207 25.0369 24.1887 25.0371C24.1703 25.0369 24.1521 25.0352 24.134 25.0345C24.0841 25.0333 24.0343 25.0268 23.9842 25.021C23.644 24.9742 23.3295 24.821 23.0825 24.5749C22.7827 24.2765 22.6175 23.8796 22.6175 23.4572C22.6175 23.2277 22.6661 23.0067 22.7622 22.8C22.8677 22.5725 22.851 22.3129 22.7177 22.1054C22.5889 21.9054 22.3688 21.786 22.1285 21.786H22.0949H19.4016V21.3558ZM29.4359 25.9708C29.6454 26.166 29.9684 26.2164 30.2353 26.0938C30.4433 25.9983 30.6654 25.9498 30.8955 25.9498C31.503 25.9498 32.0484 26.2866 32.3186 26.8289C32.6063 27.406 32.5148 28.0822 32.068 28.6914C31.4633 29.1339 30.7789 29.227 30.2147 28.9578C30.1215 28.9131 30.0226 28.8904 29.9202 28.8904C29.5324 28.8904 29.2169 29.2082 29.2169 29.5988V32.2757C24.036 32.0965 19.8519 28.1348 19.4345 22.971V22.5083H22.0656C21.6863 23.3358 21.8285 24.2781 22.459 25.1015L22.489 25.1406L22.5285 25.1703C23.039 25.5563 23.6075 25.7604 24.1724 25.7604H24.1727C24.1783 25.7604 24.1836 25.7597 24.1889 25.7597C24.1945 25.7597 24.1998 25.7604 24.2051 25.7604C24.77 25.7604 25.3386 25.5565 25.8489 25.1708L25.8881 25.1411L25.9181 25.102C26.5493 24.2786 26.6918 23.336 26.3124 22.5083H29.2162V25.4629C29.2167 25.6586 29.2946 25.8388 29.4359 25.9708ZM37.0609 21.7857C37.1976 21.4868 37.2673 21.1677 37.2673 20.8371C37.2673 19.5672 36.2294 18.5336 34.9538 18.5336C34.3889 18.5336 33.8203 18.7375 33.3101 19.1233L33.2707 19.1529L33.2406 19.192C32.6097 20.0157 32.4672 20.9582 32.8463 21.7857H29.9425V18.8311C29.9425 18.4393 29.6309 18.1322 29.2336 18.1322C29.1267 18.1322 29.0224 18.1551 28.9237 18.2005C28.7161 18.296 28.494 18.3445 28.2637 18.3445C27.6562 18.3445 27.1108 18.0077 26.8406 17.4656C26.7358 17.2555 26.6828 17.0321 26.6775 16.8036C26.6775 16.7956 26.6761 16.7874 26.6761 16.7795C26.6761 16.7737 26.6773 16.7677 26.6773 16.7616C26.6819 16.5315 26.7353 16.3061 26.8408 16.0946C27.1113 15.5525 27.6564 15.2157 28.2639 15.2157C28.494 15.2157 28.7161 15.2642 28.9239 15.3597C29.0224 15.4051 29.1267 15.428 29.2336 15.428C29.6311 15.428 29.9425 15.1211 29.9425 14.7291V14.6979C29.9425 14.6972 29.9427 14.6965 29.9427 14.6955V12.0198C35.3032 12.2207 39.5364 16.4478 39.7196 21.7857H37.0609Z" fill="#001E55"/>
<path d="M18.5168 49.9428C19.6868 51.5445 20.4404 51.9796 21.4717 52.4937V52.5531H17.8822V52.2169L14.0151 46.8777H13.8366H11.318V51.4259C11.318 52.1378 12.0121 52.3553 12.8252 52.4542V52.5531H7.78809V52.4542C8.60117 52.3553 9.29526 52.1378 9.29526 51.4259V39.8378C9.29526 39.1259 8.60117 38.9084 7.78809 38.8095V38.7106H14.7489C17.9417 38.7106 19.9843 39.9169 19.9843 42.3492C19.9843 44.4058 18.497 46.0273 16.0577 46.6206L18.5168 49.9428ZM11.318 46.0867C12.3691 46.3833 13.3607 46.5217 14.4316 46.5217C16.8906 46.5217 18.0012 45.8296 18.0012 43.0809C18.0012 41.1034 17.4062 39.0666 13.678 39.0666H11.318V46.0867ZM31.5063 50.9315C31.5063 51.9994 31.6847 52.3355 32.2797 52.731V52.7904L29.186 52.1773C29.186 52.1773 29.2058 52.1773 29.2058 52.1576C28.5712 52.4937 27.778 52.6915 26.8459 52.6915C24.0894 52.6915 22.0666 51.0106 22.0666 48.1432C22.0666 45.2957 24.0894 42.8436 28.2143 42.8436C29.4835 42.8436 30.5147 43.0809 31.5063 43.5752V50.9315ZM23.9902 47.0754C23.9902 49.9032 25.7155 52.1378 27.9961 52.1378C28.7696 52.1378 29.2455 51.8807 29.6421 51.4457C29.662 51.2479 29.6818 50.9908 29.6818 50.6744V44.3069C29.0869 43.6741 28.3134 43.2193 27.2227 43.2193C25.1801 43.2193 23.9902 44.742 23.9902 47.0754ZM40.4898 37.3461C41.3029 37.3461 42.2746 37.5043 43.9008 38.2953L42.3143 39.6796C41.5607 38.8886 40.1527 37.9987 38.9232 37.9987C37.3168 37.9987 36.7021 39.4818 36.7021 41.8746V42.9622H39.9147L39.8156 43.4368H36.7021V50.6349C36.7021 51.7027 36.8409 52.2564 38.0307 52.474V52.5531H34.5603L34.8776 51.327V44.3069C34.8776 43.3973 34.3025 43.4368 33.3704 43.4368L33.4696 42.9622H34.8776V42.4876C34.8776 39.2247 37.6738 37.3461 40.4898 37.3461ZM50.5641 50.9315C50.5641 51.9994 50.7426 52.3355 51.3375 52.731V52.7904L48.2438 52.1773C48.2438 52.1773 48.2637 52.1773 48.2637 52.1576C47.6291 52.4937 46.8358 52.6915 45.9038 52.6915C43.1472 52.6915 41.1244 51.0106 41.1244 48.1432C41.1244 45.2957 43.1472 42.8436 47.2721 42.8436C48.5413 42.8436 49.5725 43.0809 50.5641 43.5752V50.9315ZM43.0481 47.0754C43.0481 49.9032 44.7734 52.1378 47.054 52.1378C47.8274 52.1378 48.3033 51.8807 48.7 51.4457C48.7198 51.2479 48.7396 50.9908 48.7396 50.6744V44.3069C48.1447 43.6741 47.3713 43.2193 46.2805 43.2193C44.2379 43.2193 43.0481 44.742 43.0481 47.0754Z" fill="#001E55"/>
</g>
<defs>
<clipPath id="clip0">
<rect width="63.1467" height="64" fill="white"/>
</clipPath>
</defs>
</svg>
