<svg width="269" height="270" viewBox="0 0 269 270" fill="none" xmlns="http://www.w3.org/2000/svg">
<path d="M116.57 52H111.32V16.4805H98.5781V12.1875H129.34V16.4805H116.57V52ZM140.551 52H135.246V12.1875H140.551V29.3047H160.566V12.1875H165.871V52H160.566V33.5703H140.551V52ZM180.91 52H175.605V12.1875H180.91V52ZM221.105 52H215.773L195.785 21.2109V52H190.48V12.1875H195.785L215.855 43.0586V12.1875H221.105V52ZM235.762 52H230.457V12.1875H235.762V31.8203L240.055 27.0625L253.398 12.1875H259.797L244.156 29.7695L261 52H254.656L240.629 33.4883L235.762 38.5195V52ZM71.3438 86.3789C71.3438 90.3529 70.6875 93.7708 69.375 96.6328C68.0625 99.4948 66.2122 101.701 63.8242 103.25C61.4362 104.781 58.6198 105.547 55.375 105.547C52.2396 105.547 49.4596 104.781 47.0352 103.25C44.6107 101.701 42.7148 99.4948 41.3477 96.6328C39.9805 93.7708 39.2969 90.3529 39.2969 86.3789V83.8359C39.2969 79.862 39.9714 76.444 41.3203 73.582C42.6875 70.7018 44.5742 68.4961 46.9805 66.9648C49.4049 65.4154 52.1849 64.6406 55.3203 64.6406C58.5651 64.6406 61.3815 65.4154 63.7695 66.9648C66.1758 68.4961 68.0352 70.7018 69.3477 73.582C70.6784 76.444 71.3438 79.862 71.3438 83.8359V86.3789ZM66.0938 83.7812C66.0938 79.0417 65.1458 75.4141 63.25 72.8984C61.3542 70.3646 58.7109 69.0977 55.3203 69.0977C52.0755 69.0977 49.4688 70.3646 47.5 72.8984C45.5495 75.4141 44.5742 79.0417 44.5742 83.7812V86.3789C44.5742 91.1549 45.5586 94.8099 47.5273 97.3438C49.5143 99.8594 52.1302 101.117 55.375 101.117C58.8021 101.117 61.4453 99.8594 63.3047 97.3438C65.1641 94.8099 66.0938 91.1549 66.0938 86.3789V83.7812ZM107.301 65.1875V92.1211C107.301 95.1107 106.626 97.599 105.277 99.5859C103.947 101.573 102.178 103.068 99.9727 104.07C97.7852 105.055 95.4062 105.547 92.8359 105.547C90.138 105.547 87.6953 105.055 85.5078 104.07C83.3385 103.068 81.6159 101.573 80.3398 99.5859C79.082 97.599 78.4531 95.1107 78.4531 92.1211V65.1875H83.7031V92.1211C83.7031 95.2383 84.5417 97.5443 86.2188 99.0391C87.8958 100.534 90.1016 101.281 92.8359 101.281C95.5885 101.281 97.7943 100.534 99.4531 99.0391C101.13 97.5443 101.969 95.2383 101.969 92.1211V65.1875H107.301ZM130.297 105H125.047V69.4805H112.305V65.1875H143.066V69.4805H130.297V105ZM169.727 94.9375C169.727 93.6797 169.462 92.6133 168.934 91.7383C168.405 90.8633 167.457 90.0703 166.09 89.3594C164.723 88.6484 162.781 87.9284 160.266 87.1992C156.346 86.069 153.22 84.6016 150.887 82.7969C148.553 80.9922 147.387 78.5495 147.387 75.4688C147.387 73.3906 147.943 71.5404 149.055 69.918C150.185 68.2773 151.762 66.9922 153.785 66.0625C155.809 65.1146 158.178 64.6406 160.895 64.6406C163.902 64.6406 166.454 65.2148 168.551 66.3633C170.647 67.4935 172.242 68.9792 173.336 70.8203C174.43 72.6432 174.977 74.5938 174.977 76.6719H169.645C169.645 74.4297 168.934 72.5794 167.512 71.1211C166.09 69.6628 163.884 68.9336 160.895 68.9336C158.105 68.9336 156.046 69.5534 154.715 70.793C153.384 72.0143 152.719 73.5456 152.719 75.3867C152.719 77.0638 153.448 78.4674 154.906 79.5977C156.365 80.7279 158.725 81.7487 161.988 82.6602C166.509 83.9362 169.818 85.5221 171.914 87.418C174.01 89.2956 175.059 91.7839 175.059 94.8828C175.059 97.0339 174.484 98.9115 173.336 100.516C172.188 102.12 170.574 103.359 168.496 104.234C166.418 105.109 163.975 105.547 161.168 105.547C159.327 105.547 157.513 105.292 155.727 104.781C153.958 104.271 152.345 103.505 150.887 102.484C149.447 101.464 148.289 100.206 147.414 98.7109C146.557 97.1979 146.129 95.4479 146.129 93.4609H151.434C151.434 95.2839 151.889 96.7695 152.801 97.918C153.712 99.0664 154.906 99.9141 156.383 100.461C157.878 101.008 159.473 101.281 161.168 101.281C163.921 101.281 166.035 100.707 167.512 99.5586C168.988 98.4102 169.727 96.8698 169.727 94.9375ZM187.473 105H182.168V65.1875H187.473V105ZM197.043 105V65.1875H208.281C211.781 65.1875 214.844 65.9531 217.469 67.4844C220.112 68.9974 222.172 71.1576 223.648 73.9648C225.125 76.7539 225.863 80.0625 225.863 83.8906V86.2969C225.863 90.1432 225.125 93.4609 223.648 96.25C222.172 99.0391 220.085 101.199 217.387 102.73C214.689 104.243 211.499 105 207.816 105H197.043ZM208.281 69.4805H202.348V100.734H207.816C212.064 100.734 215.254 99.4219 217.387 96.7969C219.538 94.1719 220.613 90.6719 220.613 86.2969V83.8359C220.613 79.2786 219.538 75.7513 217.387 73.2539C215.254 70.7383 212.219 69.4805 208.281 69.4805ZM259.086 105H233.793V65.1875H258.812V69.4805H239.098V82.3047H256.297V86.5703H239.098V100.734H259.086V105ZM175.141 158H169.891V122.48H157.148V118.188H187.91V122.48H175.141V158ZM199.121 158H193.816V118.188H199.121V135.305H219.137V118.188H224.441V158H219.137V139.57H199.121V158ZM259.086 158H233.793V118.188H258.812V122.48H239.098V135.305H256.297V139.57H239.098V153.734H259.086V158Z" fill="#001E55"/>
<path d="M184.711 257.516C184.711 261.253 183.508 264.105 181.102 266.074C178.714 268.025 175.533 269 171.559 269H157.613V229.188H170.684C174.749 229.188 177.93 230.035 180.227 231.73C182.523 233.408 183.672 236.096 183.672 239.797C183.672 241.638 183.134 243.279 182.059 244.719C181.001 246.159 179.561 247.271 177.738 248.055C179.98 248.638 181.703 249.805 182.906 251.555C184.109 253.286 184.711 255.273 184.711 257.516ZM170.684 233.48H162.918V246.168H170.82C173.081 246.168 174.904 245.603 176.289 244.473C177.674 243.342 178.367 241.766 178.367 239.742C178.367 237.555 177.729 235.969 176.453 234.984C175.195 233.982 173.272 233.48 170.684 233.48ZM179.406 257.57C179.406 255.346 178.805 253.587 177.602 252.293C176.398 250.999 174.466 250.352 171.805 250.352H162.918V264.734H171.559C174.056 264.734 175.988 264.087 177.355 262.793C178.723 261.499 179.406 259.758 179.406 257.57ZM223.156 250.379C223.156 254.353 222.5 257.771 221.188 260.633C219.875 263.495 218.025 265.701 215.637 267.25C213.249 268.781 210.432 269.547 207.188 269.547C204.052 269.547 201.272 268.781 198.848 267.25C196.423 265.701 194.527 263.495 193.16 260.633C191.793 257.771 191.109 254.353 191.109 250.379V247.836C191.109 243.862 191.784 240.444 193.133 237.582C194.5 234.702 196.387 232.496 198.793 230.965C201.217 229.415 203.997 228.641 207.133 228.641C210.378 228.641 213.194 229.415 215.582 230.965C217.988 232.496 219.848 234.702 221.16 237.582C222.491 240.444 223.156 243.862 223.156 247.836V250.379ZM217.906 247.781C217.906 243.042 216.958 239.414 215.062 236.898C213.167 234.365 210.523 233.098 207.133 233.098C203.888 233.098 201.281 234.365 199.312 236.898C197.362 239.414 196.387 243.042 196.387 247.781V250.379C196.387 255.155 197.371 258.81 199.34 261.344C201.327 263.859 203.943 265.117 207.188 265.117C210.615 265.117 213.258 263.859 215.117 261.344C216.977 258.81 217.906 255.155 217.906 250.379V247.781ZM243.473 244.473L252.988 229.188H259.195L246.645 248.902L259.496 269H253.234L243.473 253.414L233.656 269H227.422L240.301 248.902L227.695 229.188H233.93L243.473 244.473Z" fill="#001E55"/>
<rect x="0.5" y="0.5" width="268" height="216" stroke="#001E55"/>
</svg>
